<svg width="233" height="14" viewBox="0 0 233 14" fill="none" xmlns="http://www.w3.org/2000/svg">
<path opacity="0.3" d="M100.873 10H104.716V9.118H101.917V3.376H100.873V10ZM109.104 10.117C110.805 10.117 111.993 8.794 111.993 6.661C111.993 4.528 110.805 3.25 109.104 3.25C107.403 3.25 106.224 4.528 106.224 6.661C106.224 8.794 107.403 10.117 109.104 10.117ZM109.104 9.208C108.006 9.208 107.295 8.218 107.295 6.661C107.295 5.104 108.006 4.159 109.104 4.159C110.202 4.159 110.922 5.104 110.922 6.661C110.922 8.218 110.202 9.208 109.104 9.208ZM117.069 10.117C117.978 10.117 118.725 9.784 119.166 9.343V6.472H116.907V7.327H118.221V8.884C117.987 9.091 117.582 9.208 117.177 9.208C115.809 9.208 115.08 8.245 115.08 6.67C115.08 5.113 115.899 4.159 117.132 4.159C117.771 4.159 118.176 4.42 118.5 4.753L119.067 4.087C118.662 3.664 118.032 3.25 117.096 3.25C115.341 3.25 114.009 4.546 114.009 6.706C114.009 8.875 115.296 10.117 117.069 10.117ZM121.68 10H122.724V3.376H121.68V10ZM125.457 10H126.447V6.877C126.447 6.157 126.366 5.392 126.312 4.708H126.357L127.05 6.094L129.246 10H130.317V3.376H129.327V6.463C129.327 7.183 129.408 7.984 129.462 8.668H129.417L128.724 7.264L126.528 3.376H125.457V10Z" fill="white"/>
<line opacity="0.3" x1="-2.18557e-08" y1="6.75" x2="96" y2="6.74999" stroke="white" stroke-width="0.5"/>
<line opacity="0.3" x1="137" y1="6.75" x2="233" y2="6.75001" stroke="white" stroke-width="0.5"/>
</svg>
