<?xml version="1.0" encoding="UTF-8" standalone="no"?>
<!-- Created with Keyshape -->
<svg xmlns="http://www.w3.org/2000/svg" width="340" height="340" viewBox="0 0 340 340" fill="none">
    <style>
@keyframes Group-26-2_t { 0% { transform: translate(0px,-3px); } 100% { transform: translate(0px,-102px); } }
@keyframes Group-26_t { 0% { transform: translate(0px,-3px); } 100% { transform: translate(0px,-102px); } }
    </style>
    <defs>
        <filter id="Filter-0" x="-11%" y="-10%" width="133%" height="123%" color-interpolation-filters="sRGB">
            <feGaussianBlur stdDeviation="9.6"/>
        </filter>
        <mask id="mask1-2">
            <rect id="Rectangle-10-2" width="300" height="69" fill="#ffffff" transform="translate(264,-140) rotate(90) translate(202,62)"/>
        </mask>
        <mask id="mask0-2">
            <rect id="mask-2" width="160" height="69" rx="10" fill="#ffffff" transform="translate(260,-144) rotate(90) translate(202,58)"/>
        </mask>
        <mask id="mask1">
            <rect id="Rectangle-10" width="300" height="69" fill="#ffffff" transform="translate(264,-140) rotate(90) translate(202,62)"/>
        </mask>
        <mask id="mask0">
            <rect id="mask" width="160" height="69" rx="10" fill="#ffffff" transform="translate(260,-144) rotate(90) translate(202,58)"/>
        </mask>
    </defs>
    <g id="graphic_wrap-2" filter="url(#Filter-0)" opacity="0.6">
        <g mask="url(#mask0-2)">
            <rect id="bg-2" width="160.727" height="69.0303" rx="10" fill="white" transform="translate(260.333,-143.727) rotate(90) translate(202.03,58.3031)"/>
            <g id="graphic-2">
                <g mask="url(#mask1-2)">
                    <rect id="Rectangle-13-2" width="300" height="159" fill="white" transform="translate(264,-140) rotate(90) translate(202,62)"/>
                    <g id="Group-26-2" transform="translate(0,-3)" style="animation: 7s linear infinite both Group-26-2_t;">
                        <g id="Group-23-2">
                            <rect id="Rectangle-14-2" width="208" height="23.3333" fill="#4A6EF6" transform="translate(44.0112,-15.7581) rotate(20) translate(66.6899,116.921)"/>
                            <rect id="Rectangle-16-2" width="208" height="23.3333" fill="white" transform="translate(50.729,160.773) rotate(-160) scale(-1,1)"/>
                            <rect id="Rectangle-15-2" width="208" height="23.3333" fill="#E05E35" transform="translate(29.9754,-23.8617) rotate(20) translate(82.6509,73.0686)"/>
                        </g>
                        <g id="Group-26_2-2">
                            <rect id="Rectangle-14_2-2" width="208" height="23.3333" fill="#4A6EF6" transform="translate(16.0398,-31.9074) rotate(20) translate(98.4978,29.5295)"/>
                            <rect id="Rectangle-16_2-2" width="208" height="23.3333" fill="white" transform="translate(82.5369,73.3818) rotate(-160) scale(-1,1)"/>
                            <rect id="Rectangle-15_2-2" width="208" height="23.3333" fill="#E05E35" transform="translate(2.00404,-40.0111) rotate(20) translate(114.459,-14.3228)"/>
                        </g>
                        <g id="Group-24-3">
                            <rect id="Rectangle-14_3-3" width="208" height="23.3333" fill="#4A6EF6" transform="translate(72.083,0.449067) rotate(20) translate(34.7681,204.626)"/>
                            <rect id="Rectangle-15_3-3" width="208" height="23.3333" fill="#E05E35" transform="translate(58.0469,-7.65454) rotate(20) translate(50.729,160.773)"/>
                        </g>
                        <g id="Group-24-4" transform="translate(0,99.117)">
                            <rect id="Rectangle-14_3-4" width="208" height="23.3333" fill="#4A6EF6" transform="translate(72.083,0.449067) rotate(20) translate(34.7681,204.626)"/>
                            <rect id="Rectangle-15_3-4" width="208" height="23.3333" fill="#E05E35" transform="translate(58.0469,-7.65454) rotate(20) translate(50.729,160.773)"/>
                        </g>
                    </g>
                </g>
            </g>
        </g>
    </g>
    <g id="logo-image">
        <g id="div">
            <g id="graphic_wrap">
                <g mask="url(#mask0)">
                    <rect id="bg" width="160.727" height="69.0303" rx="10" fill="white" transform="translate(260.333,-143.727) rotate(90) translate(202.03,58.3031)"/>
                    <g id="graphic">
                        <g mask="url(#mask1)">
                            <rect id="Rectangle-13" width="300" height="159" fill="white" transform="translate(264,-140) rotate(90) translate(202,62)"/>
                            <g id="Group-26" transform="translate(0,-3)" style="animation: 7s linear infinite both Group-26_t;">
                                <g id="Group-23">
                                    <rect id="Rectangle-14" width="208" height="23.3333" fill="#4A6EF6" transform="translate(44.0112,-15.7581) rotate(20) translate(66.6899,116.921)"/>
                                    <rect id="Rectangle-16" width="208" height="23.3333" fill="white" transform="translate(50.729,160.773) rotate(-160) scale(-1,1)"/>
                                    <rect id="Rectangle-15" width="208" height="23.3333" fill="#E05E35" transform="translate(29.9754,-23.8617) rotate(20) translate(82.6509,73.0686)"/>
                                </g>
                                <g id="Group-26_2">
                                    <rect id="Rectangle-14_2" width="208" height="23.3333" fill="#4A6EF6" transform="translate(16.0398,-31.9074) rotate(20) translate(98.4978,29.5295)"/>
                                    <rect id="Rectangle-16_2" width="208" height="23.3333" fill="white" transform="translate(82.5369,73.3818) rotate(-160) scale(-1,1)"/>
                                    <rect id="Rectangle-15_2" width="208" height="23.3333" fill="#E05E35" transform="translate(2.00404,-40.0111) rotate(20) translate(114.459,-14.3228)"/>
                                </g>
                                <g id="Group-24">
                                    <rect id="Rectangle-14_3" width="208" height="23.3333" fill="#4A6EF6" transform="translate(72.083,0.449067) rotate(20) translate(34.7681,204.626)"/>
                                    <rect id="Rectangle-15_3" width="208" height="23.3333" fill="#E05E35" transform="translate(58.0469,-7.65454) rotate(20) translate(50.729,160.773)"/>
                                </g>
                                <g id="Group-24-2" transform="translate(0,99.117)">
                                    <rect id="Rectangle-14_3-2" width="208" height="23.3333" fill="#4A6EF6" transform="translate(72.083,0.449067) rotate(20) translate(34.7681,204.626)"/>
                                    <rect id="Rectangle-15_3-2" width="208" height="23.3333" fill="#E05E35" transform="translate(58.0469,-7.65454) rotate(20) translate(50.729,160.773)"/>
                                </g>
                            </g>
                        </g>
                    </g>
                </g>
            </g>
            <path id="bottom" d="M201,212.849C201.552,212.849,202,213.296,202,213.849L202,219.333C202,224.856,197.523,229.333,192,229.333L142.971,229.333C137.448,229.333,132.971,224.856,132.971,219.333L132.971,213.849C132.971,213.296,133.418,212.849,133.971,212.849L201,212.849Z" fill="#EDEDED"/>
            <path id="top" d="M192,48C197.523,48,202,52.4772,202,58L202,63.4848C202,64.0371,201.552,64.4848,201,64.4848L133.971,64.4848C133.418,64.4848,132.971,64.0371,132.971,63.4848L132.971,58C132.971,52.4771,137.448,48,142.971,48L192,48Z" fill="#EDEDED"/>
        </g>
        <g id="Hi-there!-Welcome-to">
            <path d="M92.7882,272L92.7882,254.547L88.9485,254.547L88.9485,261.453L81.8674,261.453L81.8674,254.547L78.0277,254.547L78.0277,272L81.8674,272L81.8674,264.994L88.9485,264.994L88.9485,272L92.7882,272Z" fill="white"/>
            <path d="M117.376,272L109.896,254.422L106.355,254.422L98.8752,272L102.79,272L104.385,268.085L111.766,268.085L113.361,272L117.376,272ZM110.394,264.695L105.757,264.695L108.076,259.035L110.394,264.695Z" fill="white"/>
            <path d="M127.484,272L127.484,254.547L123.644,254.547L123.644,272L127.484,272Z" fill="white"/>
            <path d="M150.33,272L146.067,265.767C147.18,265.351,148.078,264.703,148.759,263.822C149.458,262.924,149.807,261.769,149.807,260.356L149.807,260.306C149.807,258.494,149.225,257.082,148.061,256.068C146.914,255.054,145.302,254.547,143.224,254.547L135.246,254.547L135.246,272L139.085,272L139.085,266.415L142.102,266.415L145.842,272L150.33,272ZM145.917,260.556C145.917,261.304,145.659,261.902,145.144,262.351C144.645,262.8,143.922,263.024,142.975,263.024L139.085,263.024L139.085,258.012L142.9,258.012C143.848,258.012,144.587,258.22,145.119,258.636C145.651,259.051,145.917,259.675,145.917,260.506L145.917,260.556Z" fill="white"/>
            <path d="M169.28,266.839L169.28,266.789C169.28,266.024,169.155,265.368,168.906,264.819C168.673,264.271,168.316,263.797,167.834,263.398C167.369,262.982,166.787,262.633,166.089,262.351C165.407,262.052,164.626,261.786,163.745,261.553C162.997,261.353,162.374,261.179,161.875,261.029C161.393,260.88,161.011,260.722,160.728,260.556C160.445,260.389,160.246,260.207,160.13,260.007C160.03,259.791,159.98,259.542,159.98,259.259L159.98,259.209C159.98,258.777,160.163,258.42,160.528,258.137C160.911,257.838,161.476,257.688,162.224,257.688C162.972,257.688,163.72,257.846,164.468,258.162C165.216,258.461,165.981,258.877,166.762,259.409L168.756,256.516C167.859,255.802,166.87,255.253,165.789,254.871C164.726,254.488,163.554,254.297,162.274,254.297C161.376,254.297,160.553,254.422,159.805,254.671C159.057,254.921,158.409,255.278,157.861,255.743C157.329,256.209,156.913,256.766,156.614,257.414C156.315,258.046,156.165,258.76,156.165,259.558L156.165,259.608C156.165,260.472,156.298,261.196,156.564,261.777C156.847,262.359,157.237,262.849,157.736,263.248C158.235,263.631,158.841,263.955,159.556,264.221C160.271,264.487,161.069,264.728,161.95,264.944C162.681,265.127,163.271,265.301,163.72,265.467C164.185,265.634,164.543,265.8,164.792,265.966C165.058,266.132,165.233,266.315,165.316,266.515C165.415,266.697,165.465,266.914,165.465,267.163L165.465,267.213C165.465,267.728,165.241,268.135,164.792,268.435C164.36,268.717,163.745,268.858,162.947,268.858C161.95,268.858,161.027,268.667,160.179,268.285C159.348,267.903,158.534,267.387,157.736,266.739L155.467,269.457C156.514,270.404,157.678,271.111,158.958,271.576C160.238,272.025,161.542,272.249,162.872,272.249C163.82,272.249,164.684,272.133,165.465,271.9C166.247,271.651,166.92,271.302,167.485,270.853C168.05,270.388,168.491,269.822,168.806,269.158C169.122,268.476,169.28,267.703,169.28,266.839Z" fill="white"/>
            <path d="M189.227,258.087L189.227,254.547L174.766,254.547L174.766,258.087L180.076,258.087L180.076,272L183.916,272L183.916,258.087L189.227,258.087Z" fill="white"/>
            <path d="M213.358,263.273L213.358,263.223C213.358,261.977,213.125,260.813,212.659,259.733C212.211,258.636,211.571,257.688,210.74,256.89C209.925,256.076,208.953,255.436,207.822,254.971C206.692,254.488,205.454,254.247,204.107,254.247C202.761,254.247,201.514,254.488,200.367,254.971C199.237,255.436,198.256,256.084,197.425,256.915C196.611,257.73,195.971,258.686,195.505,259.783C195.04,260.863,194.807,262.027,194.807,263.273L194.807,263.323C194.807,264.57,195.032,265.742,195.48,266.839C195.946,267.919,196.586,268.867,197.4,269.681C198.231,270.479,199.212,271.119,200.342,271.601C201.473,272.066,202.711,272.299,204.057,272.299C205.404,272.299,206.642,272.066,207.772,271.601C208.919,271.119,209.9,270.471,210.715,269.656C211.546,268.825,212.194,267.869,212.659,266.789C213.125,265.692,213.358,264.52,213.358,263.273ZM209.343,263.323C209.343,264.071,209.21,264.778,208.944,265.443C208.695,266.091,208.338,266.664,207.872,267.163C207.423,267.662,206.875,268.052,206.227,268.335C205.578,268.617,204.872,268.759,204.107,268.759C203.326,268.759,202.611,268.617,201.963,268.335C201.331,268.036,200.775,267.637,200.292,267.138C199.827,266.639,199.461,266.058,199.195,265.393C198.946,264.728,198.821,264.021,198.821,263.273L198.821,263.223C198.821,262.475,198.946,261.777,199.195,261.129C199.461,260.464,199.819,259.882,200.268,259.384C200.733,258.885,201.281,258.494,201.913,258.212C202.561,257.929,203.276,257.788,204.057,257.788C204.822,257.788,205.528,257.938,206.177,258.237C206.825,258.519,207.382,258.91,207.847,259.409C208.329,259.907,208.695,260.489,208.944,261.154C209.21,261.819,209.343,262.525,209.343,263.273L209.343,263.323Z" fill="white"/>
            <path d="M235.248,272L230.985,265.767C232.098,265.351,232.996,264.703,233.678,263.822C234.376,262.924,234.725,261.769,234.725,260.356L234.725,260.306C234.725,258.494,234.143,257.082,232.979,256.068C231.832,255.054,230.22,254.547,228.142,254.547L220.164,254.547L220.164,272L224.003,272L224.003,266.415L227.02,266.415L230.76,272L235.248,272ZM230.835,260.556C230.835,261.304,230.577,261.902,230.062,262.351C229.564,262.8,228.84,263.024,227.893,263.024L224.003,263.024L224.003,258.012L227.818,258.012C228.766,258.012,229.505,258.22,230.037,258.636C230.569,259.051,230.835,259.675,230.835,260.506L230.835,260.556Z" fill="white"/>
            <path d="M257.041,254.547L252.677,254.547L248.439,261.553L244.275,254.547L239.787,254.547L246.494,265.118L246.494,272L250.334,272L250.334,265.044L257.041,254.547Z" fill="white"/>
        </g>
    </g>
</svg>
