<svg width="340" height="340" viewBox="0 0 340 340" fill="none" xmlns="http://www.w3.org/2000/svg">
<mask id="mask0" mask-type="alpha" maskUnits="userSpaceOnUse" x="133" y="58" width="70" height="162">
<rect x="202.03" y="58.303" width="160.727" height="69.0303" rx="10" transform="rotate(90 202.03 58.303)" fill="#C74039"/>
</mask>
<g mask="url(#mask0)">
<rect x="202.03" y="58.303" width="160.727" height="69.0303" rx="10" transform="rotate(90 202.03 58.303)" fill="white"/>
<rect x="130.785" y="37.3858" width="148" height="23.3333" transform="rotate(20 130.785 37.3858)" fill="#4A6EF6"/>
<rect width="148" height="23.3333" transform="matrix(0.939693 0.34202 0.34202 -0.939693 114.824 81.2382)" fill="white"/>
<rect x="146.746" y="-6.46643" width="148" height="23.3333" transform="rotate(20 146.746 -6.46643)" fill="#C74039"/>
<rect x="98.8628" y="125.091" width="148" height="23.3333" transform="rotate(20 98.8628 125.091)" fill="#4A6EF6"/>
<rect width="148" height="23.3333" transform="matrix(0.939693 0.34202 0.34202 -0.939693 82.9019 168.943)" fill="white"/>
<rect x="114.824" y="81.2382" width="148" height="23.3333" transform="rotate(20 114.824 81.2382)" fill="#E05E35"/>
<rect x="66.9409" y="212.795" width="148" height="23.3333" transform="rotate(20 66.9409 212.795)" fill="#4A6EF6"/>
<rect x="82.9019" y="168.943" width="148" height="23.3333" transform="rotate(20 82.9019 168.943)" fill="#E05E35"/>
</g>
<path d="M201.03 212.849C201.583 212.849 202.03 213.296 202.03 213.849L202.03 219.333C202.03 224.856 197.553 229.333 192.03 229.333L143.001 229.333C137.478 229.333 133.001 224.856 133.001 219.333L133.001 213.849C133.001 213.296 133.449 212.849 134.001 212.849L201.03 212.849Z" fill="#EDEDED"/>
<path d="M192.03 48C197.553 48 202.03 52.4772 202.03 58L202.03 63.4848C202.03 64.0371 201.583 64.4848 201.03 64.4848L134.001 64.4848C133.449 64.4848 133.001 64.0371 133.001 63.4848L133.001 58C133.001 52.4771 137.478 48 143.001 48L192.03 48Z" fill="#EDEDED"/>
<path d="M92.7882 272V254.547H88.9485V261.453H81.8674V254.547H78.0277V272H81.8674V264.994H88.9485V272H92.7882Z" fill="white"/>
<path d="M117.376 272L109.896 254.422H106.355L98.8752 272H102.79L104.385 268.085H111.766L113.361 272H117.376ZM110.394 264.695H105.757L108.076 259.035L110.394 264.695Z" fill="white"/>
<path d="M127.484 272V254.547H123.644V272H127.484Z" fill="white"/>
<path d="M150.33 272L146.067 265.767C147.18 265.351 148.078 264.703 148.759 263.822C149.458 262.924 149.807 261.769 149.807 260.356V260.306C149.807 258.494 149.225 257.082 148.061 256.068C146.914 255.054 145.302 254.547 143.224 254.547H135.246V272H139.085V266.415H142.102L145.842 272H150.33ZM145.917 260.556C145.917 261.304 145.659 261.902 145.144 262.351C144.645 262.8 143.922 263.024 142.975 263.024H139.085V258.012H142.9C143.848 258.012 144.587 258.22 145.119 258.636C145.651 259.051 145.917 259.675 145.917 260.506V260.556Z" fill="white"/>
<path d="M169.28 266.839V266.789C169.28 266.024 169.155 265.368 168.906 264.819C168.673 264.271 168.316 263.797 167.834 263.398C167.368 262.982 166.787 262.633 166.089 262.351C165.407 262.052 164.626 261.786 163.745 261.553C162.997 261.353 162.373 261.179 161.875 261.029C161.393 260.88 161.01 260.722 160.728 260.556C160.445 260.389 160.246 260.207 160.129 260.007C160.03 259.791 159.98 259.542 159.98 259.259V259.209C159.98 258.777 160.163 258.42 160.528 258.137C160.911 257.838 161.476 257.688 162.224 257.688C162.972 257.688 163.72 257.846 164.468 258.162C165.216 258.461 165.981 258.877 166.762 259.409L168.756 256.516C167.859 255.802 166.87 255.253 165.789 254.871C164.726 254.488 163.554 254.297 162.274 254.297C161.376 254.297 160.553 254.422 159.805 254.671C159.057 254.921 158.409 255.278 157.861 255.743C157.329 256.209 156.913 256.766 156.614 257.414C156.315 258.046 156.165 258.76 156.165 259.558V259.608C156.165 260.472 156.298 261.196 156.564 261.777C156.847 262.359 157.237 262.849 157.736 263.248C158.235 263.631 158.841 263.955 159.556 264.221C160.271 264.487 161.069 264.728 161.95 264.944C162.681 265.127 163.271 265.301 163.72 265.467C164.185 265.634 164.543 265.8 164.792 265.966C165.058 266.132 165.233 266.315 165.316 266.515C165.415 266.697 165.465 266.914 165.465 267.163V267.213C165.465 267.728 165.241 268.135 164.792 268.435C164.36 268.717 163.745 268.858 162.947 268.858C161.95 268.858 161.027 268.667 160.179 268.285C159.348 267.903 158.534 267.387 157.736 266.739L155.467 269.457C156.514 270.404 157.678 271.111 158.958 271.576C160.238 272.025 161.542 272.249 162.872 272.249C163.82 272.249 164.684 272.133 165.465 271.9C166.246 271.651 166.92 271.302 167.485 270.853C168.05 270.388 168.49 269.822 168.806 269.158C169.122 268.476 169.28 267.703 169.28 266.839Z" fill="white"/>
<path d="M189.227 258.087V254.547H174.766V258.087H180.076V272H183.916V258.087H189.227Z" fill="white"/>
<path d="M213.358 263.273V263.223C213.358 261.977 213.125 260.813 212.659 259.733C212.211 258.636 211.571 257.688 210.74 256.89C209.925 256.076 208.953 255.436 207.822 254.971C206.692 254.488 205.454 254.247 204.107 254.247C202.761 254.247 201.514 254.488 200.367 254.971C199.237 255.436 198.256 256.084 197.425 256.915C196.611 257.73 195.971 258.686 195.505 259.783C195.04 260.863 194.807 262.027 194.807 263.273V263.323C194.807 264.57 195.032 265.742 195.48 266.839C195.946 267.919 196.586 268.867 197.4 269.681C198.231 270.479 199.212 271.119 200.342 271.601C201.473 272.066 202.711 272.299 204.057 272.299C205.404 272.299 206.642 272.066 207.772 271.601C208.919 271.119 209.9 270.471 210.715 269.656C211.546 268.825 212.194 267.869 212.659 266.789C213.125 265.692 213.358 264.52 213.358 263.273ZM209.343 263.323C209.343 264.071 209.21 264.778 208.944 265.443C208.695 266.091 208.338 266.664 207.872 267.163C207.423 267.662 206.875 268.052 206.227 268.335C205.578 268.617 204.872 268.759 204.107 268.759C203.326 268.759 202.611 268.617 201.963 268.335C201.331 268.036 200.774 267.637 200.292 267.138C199.827 266.639 199.461 266.058 199.195 265.393C198.946 264.728 198.821 264.021 198.821 263.273V263.223C198.821 262.475 198.946 261.777 199.195 261.129C199.461 260.464 199.819 259.882 200.268 259.384C200.733 258.885 201.281 258.494 201.913 258.212C202.561 257.929 203.276 257.788 204.057 257.788C204.822 257.788 205.528 257.938 206.177 258.237C206.825 258.519 207.382 258.91 207.847 259.409C208.329 259.907 208.695 260.489 208.944 261.154C209.21 261.819 209.343 262.525 209.343 263.273V263.323Z" fill="white"/>
<path d="M235.248 272L230.985 265.767C232.098 265.351 232.996 264.703 233.678 263.822C234.376 262.924 234.725 261.769 234.725 260.356V260.306C234.725 258.494 234.143 257.082 232.979 256.068C231.832 255.054 230.22 254.547 228.142 254.547H220.164V272H224.003V266.415H227.02L230.76 272H235.248ZM230.835 260.556C230.835 261.304 230.577 261.902 230.062 262.351C229.564 262.8 228.84 263.024 227.893 263.024H224.003V258.012H227.818C228.766 258.012 229.505 258.22 230.037 258.636C230.569 259.051 230.835 259.675 230.835 260.506V260.556Z" fill="white"/>
<path d="M257.041 254.547H252.677L248.439 261.553L244.275 254.547H239.787L246.494 265.118V272H250.333V265.044L257.041 254.547Z" fill="white"/>
</svg>
